<svg xmlns="http://www.w3.org/2000/svg" fill="none" viewBox="0 0 16 16">
	<path fill="#00C9FF" d="M3.5 16c-.41 0-.77-.15-1.06-.45-.3-.3-.44-.65-.44-1.07V6.86c0-.42.15-.78.44-1.08.3-.3.65-.45 1.06-.45h.75V3.81a3.7 3.7 0 0 1 1.1-2.7A3.59 3.59 0 0 1 8 0c1.04 0 1.92.37 2.65 1.11a3.7 3.7 0 0 1 1.1 2.7v1.52h.75c.41 0 .77.15 1.06.45.3.3.44.66.44 1.08v7.62c0 .42-.15.77-.44 1.07-.3.3-.65.45-1.06.45h-9Zm0-1.52h9V6.86h-9v7.62ZM8 12.19c.41 0 .77-.15 1.06-.45.3-.3.44-.65.44-1.07 0-.42-.15-.78-.44-1.08-.3-.3-.65-.45-1.06-.45-.41 0-.77.15-1.06.45-.3.3-.44.66-.44 1.08 0 .42.15.77.44 1.07.3.3.65.45 1.06.45ZM5.75 5.33h4.5V3.81a2.2 2.2 0 0 0-.66-1.62A2.15 2.15 0 0 0 8 1.52c-.63 0-1.16.23-1.6.67-.43.44-.65.98-.65 1.62v1.52Z"/>
</svg>
