<svg width="16" height="16" viewBox="0 0 16 16" fill="none" xmlns="http://www.w3.org/2000/svg">
<path d="M3.5 16C3.0875 16 2.7345 15.8509 2.441 15.5528C2.1475 15.2546 2.0005 14.8957 2 14.4762V6.85714C2 6.43809 2.147 6.07949 2.441 5.78133C2.735 5.48317 3.088 5.33384 3.5 5.33333H4.25V3.80952C4.25 2.75556 4.61575 1.85727 5.34725 1.11467C6.07875 0.372064 6.963 0.000507936 8 0C9.0375 0 9.922 0.371556 10.6535 1.11467C11.385 1.85778 11.7505 2.75606 11.75 3.80952V5.33333H12.5C12.9125 5.33333 13.2657 5.48267 13.5597 5.78133C13.8537 6.08 14.0005 6.4386 14 6.85714V14.4762C14 14.8952 13.8532 15.2541 13.5597 15.5528C13.2662 15.8514 12.913 16.0005 12.5 16H3.5ZM3.5 14.4762H12.5V6.85714H3.5V14.4762ZM8 12.1905C8.4125 12.1905 8.76575 12.0414 9.05975 11.7432C9.35375 11.4451 9.5005 11.0862 9.5 10.6667C9.5 10.2476 9.35325 9.88902 9.05975 9.59086C8.76625 9.2927 8.413 9.14336 8 9.14286C7.5875 9.14286 7.2345 9.29219 6.941 9.59086C6.6475 9.88952 6.5005 10.2481 6.5 10.6667C6.5 11.0857 6.647 11.4446 6.941 11.7432C7.235 12.0419 7.588 12.191 8 12.1905ZM5.75 5.33333H10.25V3.80952C10.25 3.1746 10.0312 2.63492 9.59375 2.19048C9.15625 1.74603 8.625 1.52381 8 1.52381C7.375 1.52381 6.84375 1.74603 6.40625 2.19048C5.96875 2.63492 5.75 3.1746 5.75 3.80952V5.33333Z" fill="#76E1FE"/>
</svg>
